HIERARCHY
ROOT pelvis
{
  OFFSET 0 100 0
  CHANNELS 6 Xposition Yposition Zposition Zrotation Xrotation Yrotation
  JOINT pelvis_right_femur
  {
    OFFSET -10.78128 -3.44521 -0.5502486
    CHANNELS 3 Zrotation Xrotation Yrotation
    JOINT right_femur_tibia
    {
      OFFSET -0.8047443 -44.0398 -0.1307829
      CHANNELS 3 Zrotation Xrotation Yrotation
      JOINT right_tibia_foot
      {
        OFFSET 3.006224 -47.83518 -5
        CHANNELS 3 Zrotation Xrotation Yrotation
        End Site
        {
          OFFSET 0 -5 15
        }
      }
    }
  }
  JOINT pelvis_left_femur
  {
    OFFSET 10.78128 -3.44521 -0.5502486
    CHANNELS 3 Zrotation Xrotation Yrotation
    JOINT left_femur_tibia
    {
      OFFSET 0.8047443 -44.0398 -0.1307829
      CHANNELS 3 Zrotation Xrotation Yrotation
      JOINT left_tibia_foot
      {
        OFFSET -4.370144 -48.10324 -4.275266
        CHANNELS 3 Zrotation Xrotation Yrotation
        End Site
        {
          OFFSET 0 -5 15
        }
      }
    }
  }
  JOINT pelvis_spine1
  {
    OFFSET 0 6.468898 -3.129235
    CHANNELS 3 Zrotation Xrotation Yrotation
    JOINT spine1
    {
      OFFSET 0 23.15396 4.99043
      CHANNELS 3 Zrotation Xrotation Yrotation
      JOINT spine2
      {
        OFFSET 0 20.79997 -5.064912
        CHANNELS 3 Zrotation Xrotation Yrotation
        JOINT neck
        {
          OFFSET 0 14.38658 9.616178
          CHANNELS 3 Zrotation Xrotation Yrotation
          End Site
          {
            OFFSET 0 20 0
          }
        }
      }
      JOINT right_manubrium
      {
        OFFSET -5.722621 16.35077 3.967754
        CHANNELS 3 Zrotation Xrotation Yrotation
        JOINT right_clavicle
        {
          OFFSET -13.16364 1.694482 -4.693211
          CHANNELS 3 Zrotation Xrotation Yrotation
          JOINT right_humerus
          {
            OFFSET -28.5034 -0.3100689 -2.792744
            CHANNELS 3 Zrotation Xrotation Yrotation
            JOINT right_radius
            {
              OFFSET -25.15693 0.02248979 -1.271978
              CHANNELS 3 Zrotation Xrotation Yrotation
              End Site
              {
                OFFSET -15 0 0
              }
            }
          }
        }
      }
      JOINT left_manubrium
      {
        OFFSET 5.722621 16.35077 3.967754
        CHANNELS 3 Zrotation Xrotation Yrotation
        JOINT left_clavicle
        {
          OFFSET 13.16364 1.694482 -4.693211
          CHANNELS 3 Zrotation Xrotation Yrotation
          JOINT left_humerus
          {
            OFFSET 29.39168 -1.063119 -2.237045
            CHANNELS 3 Zrotation Xrotation Yrotation
            JOINT left_radius
            {
              OFFSET 24.59957 -0.9528479 0.9047498
              CHANNELS 3 Zrotation Xrotation Yrotation
              End Site
              {
                OFFSET 15 -0 -0
              }
            }
          }
        }
      }
    }
  }
}
MOTION
Frames: 7
Frame Time: 0.0416666666667
-1964.501 102.4234 1108.917 -4.993406 11.42724 -158.112 4.743207 6.355206 -9.701137 -0 15.14226 -0 -20.52583 9.937468 5.540767 -0.07309915 -8.842539 -1.655454 -0 21.42959 -0 10.74766 -2.870896 16.572 0.5624693 -4.029565 5.043791 -2.005756 18.48516 -4.121684 1.197604 22.8509 3.411585 3.334816 -17.02897 3.313236 -6.109287 -26.89091 11.83816 95.75267 8.881747 -12.22196 -0 0 14.20091 -31.21354 8.767805 16.48032 5.911086 -29.14771 -11.71204 -89.65178 -0.7156628 22.56216 0 0 -10.52841 25.21466 14.07109 -17.48973
-1967.771 102.4257 1102.632 -4.915265 11.46074 -158.5059 4.743212 6.354903 -9.701219 -0 15.14217 -0 -20.52594 9.937685 5.540793 -0.07313805 -8.842214 -1.655425 -0 21.42993 -0 10.7477 -2.870901 16.57191 0.5624899 -4.029579 5.043745 -2.005747 18.48521 -4.121719 1.197605 22.85091 3.411579 3.334824 -17.02895 3.31322 -6.109323 -26.89085 11.83816 95.75281 8.881644 -12.2221 -0 0 14.20072 -31.21356 8.767803 16.48029 5.911094 -29.14782 -11.7121 -89.65171 -0.7157853 22.56199 0 0 -10.52854 25.21482 14.07106 -17.48992
-1970.998 102.4279 1096.325 -4.836873 11.49371 -158.8998 4.743228 6.35463 -9.701289 -0 15.142 -0 -20.52605 9.937846 5.540814 -0.07316106 -8.84194 -1.655391 -0 21.43026 -0 10.74772 -2.870897 16.57183 0.562514 -4.029591 5.043708 -2.005735 18.48525 -4.121754 1.197604 22.85092 3.411571 3.33483 -17.02895 3.313205 -6.109356 -26.89081 11.83817 95.75293 8.881557 -12.22223 -0 0 14.20055 -31.21357 8.767807 16.48026 5.911102 -29.14792 -11.71215 -89.65164 -0.7158918 22.56185 0 0 -10.52868 25.21496 14.07103 -17.49009
-1974.183 102.4302 1089.996 -4.758234 11.52613 -159.2939 4.743255 6.3544 -9.701346 -0 15.14176 -0 -20.52614 9.937945 5.540828 -0.07316763 -8.84173 -1.655354 -0 21.43057 -0 10.74773 -2.870886 16.57176 0.56254 -4.029601 5.043682 -2.00572 18.48528 -4.121786 1.197602 22.85092 3.411563 3.334834 -17.02895 3.313189 -6.109384 -26.89077 11.83818 95.75302 8.881492 -12.22234 -0 0 14.20042 -31.21357 8.767815 16.48022 5.911109 -29.14802 -11.7122 -89.65159 -0.715977 22.56174 0 0 -10.52881 25.21507 14.07101 -17.49022
-1977.325 102.4325 1083.646 -4.679352 11.55802 -159.6881 4.743291 6.354224 -9.701386 -0 15.14148 -0 -20.52621 9.937979 5.540837 -0.07315817 -8.841595 -1.655315 -0 21.43086 -0 10.74774 -2.870869 16.5717 0.5625662 -4.029608 5.043667 -2.005704 18.48531 -4.121814 1.1976 22.85091 3.411554 3.334837 -17.02895 3.313174 -6.109405 -26.89075 11.83818 95.75308 8.88145 -12.22244 -0 0 14.20032 -31.21355 8.767827 16.48019 5.911116 -29.14809 -11.71222 -89.65156 -0.7160371 22.56167 0 0 -10.52893 25.21516 14.07099 -17.49032
-1980.424 102.4348 1077.275 -4.600232 11.58936 -160.0823 4.743333 6.354109 -9.701407 -0 15.14116 -0 -20.52625 9.937948 5.540838 -0.07313398 -8.841537 -1.655277 -0 21.43109 -0 10.74773 -2.870846 16.57165 0.5625913 -4.029612 5.043666 -2.005686 18.48533 -4.121836 1.197597 22.85091 3.411545 3.334838 -17.02896 3.31316 -6.109418 -26.89075 11.83819 95.75312 8.881433 -12.2225 -0 0 14.20027 -31.21352 8.767842 16.48017 5.911121 -29.14814 -11.71224 -89.65154 -0.7160699 22.56163 0 0 -10.52902 25.21521 14.07099 -17.49038
-1983.48 102.4371 1070.883 -4.520878 11.62015 -160.4767 4.743378 6.354059 -9.70141 -0 15.14083 -0 -20.52627 9.937859 5.540833 -0.0730971 -8.841556 -1.655242 -0 21.43126 -0 10.74772 -2.87082 16.57162 0.5626139 -4.029613 5.043676 -2.005668 18.48533 -4.121851 1.197594 22.8509 3.411537 3.334836 -17.02898 3.313149 -6.109423 -26.89075 11.8382 95.75312 8.881442 -12.22254 -0 0 14.20026 -31.21349 8.767859 16.48014 5.911124 -29.14817 -11.71224 -89.65154 -0.716075 22.56163 0 0 -10.5291 25.21522 14.07098 -17.49039
